<svg width="304" height="304" viewBox="0 0 304 304" fill="none" xmlns="http://www.w3.org/2000/svg">
<g clip-path="url(#clip0)">
<path d="M172.631 211.084C155.242 207.41 138.043 210.665 123.78 218.892C114.048 205.595 99.645 195.657 82.257 191.984C44.834 184.072 8.05695 208.004 0.145946 245.442C0.114946 245.586 0.085946 245.731 0.055946 245.875C-0.203054 247.119 0.452946 248.378 1.61895 248.89C2.78395 249.404 4.14695 249.036 4.89295 248.005C19.8019 227.506 46.1779 222.659 74.5039 228.646C91.8919 232.32 106.304 242.262 116.028 255.554C130.291 247.333 147.5 244.074 164.887 247.745C193.213 253.727 215.359 268.831 220.713 293.603C220.982 294.848 222.076 295.733 223.351 295.738C224.625 295.744 225.719 294.858 225.997 293.619C226.028 293.474 226.057 293.336 226.087 293.196C234.001 255.753 210.054 218.99 172.631 211.084Z" fill="white"/>
<path d="M269.374 142.83C255.817 136.51 241.098 135.913 227.83 139.944C222.377 127.194 212.462 116.305 198.906 109.985C169.715 96.3803 135.009 109.015 121.402 138.207C121.402 138.207 121.393 138.216 121.393 138.227C120.924 139.227 121.224 140.422 122.11 141.088C122.985 141.755 124.219 141.72 125.055 141.003C141.158 127.248 163.593 128.328 185.578 138.574C199.135 144.895 209.057 155.783 214.502 168.534C227.76 164.501 242.49 165.099 256.047 171.415C278.471 181.87 293.888 198.806 293.071 220.603C293.042 221.574 293.687 222.434 294.624 222.678C295.569 222.916 296.545 222.464 296.973 221.598C297.182 221.175 297.391 220.751 297.589 220.325C311.196 191.132 298.556 156.431 269.374 142.83Z" fill="white"/>
<path d="M94.5099 37.677C95.1159 37.931 95.8229 37.7271 96.2119 37.1851C103.468 26.8191 116.614 24.0821 130.867 26.7191C139.656 28.3411 147.031 33.1581 152.087 39.7221C159.153 35.3981 167.773 33.536 176.571 35.163C190.824 37.796 202.11 45.0511 205.196 57.3281C205.355 57.9711 205.943 58.4141 206.599 58.3881C207.256 58.3691 207.814 57.8911 207.933 57.2391C211.436 38.3081 198.925 20.1191 179.994 16.6211C171.196 14.9981 162.587 16.8541 155.519 21.1791C150.463 14.6151 143.078 9.79805 134.29 8.17605C115.349 4.67705 97.1649 17.1881 93.6609 36.1241C93.5439 36.7761 93.8919 37.424 94.5099 37.677Z" fill="white"/>
<path d="M258.933 35.3279C263.958 39.8469 266.805 45.8689 267.473 52.0989C273.732 52.1039 280.032 54.3139 285.069 58.8379C293.549 66.4659 297.978 76.0609 294.365 85.5659C294.226 85.9199 294.365 86.3179 294.674 86.5219C294.993 86.7259 295.411 86.6809 295.68 86.4119C295.978 86.1099 296.277 85.7959 296.566 85.4729C306.299 74.6479 305.424 57.9769 294.595 48.2329C289.568 43.7099 283.279 41.5049 277.018 41.4999C276.352 35.2749 273.485 29.2489 268.468 24.7239C257.64 14.9799 240.968 15.8609 231.224 26.6849C230.886 27.0679 230.857 27.6209 231.155 28.0279C231.443 28.4309 231.98 28.5749 232.439 28.3769C241.216 24.5639 250.782 27.9979 258.933 35.3279Z" fill="white"/>
</g>
<defs>
<clipPath id="clip0">
<rect width="303.327" height="303.327" fill="white"/>
</clipPath>
</defs>
</svg>
