<svg width="431" height="292" viewBox="0 0 431 292" fill="none" xmlns="http://www.w3.org/2000/svg">
<path d="M430.117 206.453C430.117 253.436 392.305 291.524 345.68 291.524H84.422C37.798 291.524 0 253.436 0 206.453C0 164.02 30.826 128.868 71.156 122.436C70.645 119.458 70.363 116.394 70.363 113.24C70.363 83.471 94.315 59.342 123.869 59.342C137.049 59.342 149.127 64.144 158.445 72.134C175.057 34.419 196.353 0 256.097 0C328.553 0 362.894 56.303 362.894 115.715C362.894 118.2 362.79 120.662 362.623 123.098C401.135 131.005 430.117 165.317 430.117 206.453Z" fill="#FFF4F4"/>
</svg>
