<svg width="625" height="541" viewBox="0 0 625 541" fill="none" xmlns="http://www.w3.org/2000/svg">
<g clip-path="url(#clip0)">
<path d="M132.554 266.889C134.18 267.843 136.039 268.049 137.729 267.609C139.419 267.169 140.942 266.083 141.896 264.457C143.804 261.205 142.715 257.023 139.463 255.115L130.6 249.914L135.801 241.05C137.709 237.799 136.62 233.617 133.369 231.709C130.117 229.801 125.936 230.89 124.027 234.141L118.826 243.005L109.962 237.803C106.711 235.895 102.529 236.984 100.621 240.236C98.7129 243.487 99.8018 247.669 103.053 249.577L111.917 254.779L106.716 263.642C104.807 266.894 105.896 271.076 109.148 272.984C110.774 273.938 112.633 274.143 114.323 273.703C116.012 273.263 117.535 272.177 118.489 270.551L123.691 261.688L132.554 266.889Z" fill="white"/>
<path d="M460.724 351.047C457.472 349.139 453.29 350.228 451.382 353.48L446.181 362.343L437.317 357.142C434.066 355.234 429.884 356.323 427.976 359.574C426.068 362.826 427.157 367.007 430.408 368.916L439.272 374.117L434.07 382.981C432.162 386.232 433.251 390.414 436.503 392.322C438.128 393.276 439.988 393.481 441.677 393.042C443.367 392.602 444.89 391.515 445.844 389.89L451.045 381.026L459.909 386.227C461.535 387.182 463.394 387.387 465.084 386.947C466.773 386.507 468.296 385.421 469.25 383.795C471.159 380.544 470.07 376.362 466.818 374.454L457.955 369.252L463.156 360.389C465.064 357.136 463.975 352.955 460.724 351.047Z" fill="white"/>
<path d="M193.66 109.893C195.286 110.847 197.145 111.052 198.835 110.612C200.524 110.172 202.047 109.086 203.001 107.461L208.203 98.5969L217.066 103.798C218.692 104.752 220.551 104.958 222.241 104.518C223.931 104.078 225.454 102.992 226.408 101.366C228.316 98.1145 227.227 93.9327 223.975 92.0246L215.112 86.8232L220.313 77.9596C222.221 74.708 221.132 70.5262 217.881 68.6181C214.629 66.71 210.448 67.7989 208.539 71.0504L203.338 79.914L194.474 74.7126C191.223 72.8045 187.041 73.8934 185.133 77.1449C183.225 80.3964 184.314 84.5783 187.565 86.4864L196.429 91.6878L191.227 100.551C189.319 103.803 190.408 107.983 193.66 109.893Z" fill="white"/>
<path d="M173.714 453.805C177.362 452.855 179.55 449.127 178.6 445.478C177.65 441.83 173.922 439.642 170.273 440.592C166.625 441.542 164.437 445.27 165.387 448.919C166.337 452.567 170.065 454.755 173.714 453.805Z" fill="white"/>
<path d="M164.365 174.068C168.014 173.118 170.201 169.39 169.251 165.741C168.301 162.093 164.573 159.905 160.925 160.855C157.276 161.805 155.088 165.533 156.038 169.182C156.988 172.83 160.716 175.018 164.365 174.068Z" fill="white"/>
<path d="M72.7729 120.319C76.4215 119.369 78.6092 115.641 77.6591 111.992C76.7091 108.344 72.9812 106.156 69.3326 107.106C65.684 108.056 63.4963 111.784 64.4464 115.433C65.3964 119.081 69.1243 121.269 72.7729 120.319Z" fill="white"/>
<path d="M498.599 319.832C502.247 318.882 504.435 315.154 503.485 311.506C502.535 307.857 498.807 305.669 495.158 306.619C491.51 307.569 489.322 311.297 490.272 314.946C491.222 318.595 494.95 320.782 498.599 319.832Z" fill="white"/>
<path d="M436.399 53.8564C440.047 52.9064 442.235 49.1785 441.285 45.5299C440.335 41.8812 436.607 39.6936 432.958 40.6436C429.31 41.5936 427.122 45.3216 428.072 48.9702C429.022 52.6188 432.75 54.8064 436.399 53.8564Z" fill="white"/>
<path d="M195.682 290.639C184.607 309.507 181.544 331.565 187.057 352.738C192.571 373.915 205.999 391.675 224.873 402.749C244.354 414.178 266.663 416.623 286.966 411.337C307.27 406.05 325.553 393.036 336.987 373.557C359.841 334.598 346.746 284.305 307.795 261.445C268.84 238.585 218.542 251.674 195.682 290.639ZM325.215 366.649C306.168 399.117 264.245 410.033 231.784 390.977C216.058 381.748 204.867 366.946 200.272 349.299C195.678 331.653 198.229 313.274 207.458 297.549C216.988 281.313 232.221 270.473 249.143 266.066C266.059 261.662 284.658 263.697 300.889 273.222C333.35 292.272 344.263 334.182 325.215 366.649Z" fill="white"/>
<path d="M451.322 226.942L358.035 385.91C343.662 410.402 320.611 427.832 293.12 434.99C265.636 442.147 237.012 438.172 212.519 423.799C161.958 394.129 144.961 328.849 174.63 278.285L309.379 48.6615C311.288 45.41 310.199 41.2282 306.947 39.3201C303.696 37.412 299.514 38.5009 297.606 41.7524L162.856 271.374C129.373 328.432 148.553 402.093 205.61 435.573C234.135 452.315 266.818 455.893 296.547 448.152C326.282 440.41 353.07 421.347 369.808 392.819L463.095 233.851C465.003 230.599 463.915 226.417 460.663 224.509C457.412 222.601 453.229 223.688 451.322 226.942Z" fill="white"/>
<path d="M301.599 352.593C307.779 350.984 312.96 347.069 316.183 341.565C322.848 330.202 319.029 315.534 307.669 308.865C296.681 302.406 281.446 306.365 274.972 317.378C268.3 328.743 272.12 343.411 283.487 350.082C288.992 353.308 295.424 354.201 301.599 352.593ZM286.747 324.291C288.13 321.929 290.353 320.252 292.997 319.563C295.648 318.873 298.4 319.255 300.758 320.639C305.629 323.498 307.266 329.784 304.407 334.655C301.645 339.367 295.119 341.078 290.395 338.303C285.525 335.446 283.887 329.159 286.747 324.291Z" fill="white"/>
<path d="M231.007 311.367C232.915 308.115 231.826 303.932 228.574 302.024C225.323 300.116 221.139 301.205 219.231 304.456C217.323 307.708 218.412 311.891 221.664 313.8C224.915 315.708 229.099 314.618 231.007 311.367Z" fill="white"/>
<path d="M231.841 359.182C229.53 363.115 228.894 367.709 230.043 372.123C231.192 376.536 233.988 380.238 237.922 382.539C241.979 384.92 246.625 385.43 250.856 384.328C255.083 383.228 258.895 380.516 261.277 376.462C263.587 372.529 264.224 367.935 263.075 363.522C261.925 359.109 259.129 355.407 255.195 353.105C247.072 348.338 236.598 351.074 231.841 359.182ZM249.503 369.546L249.504 369.549C248.548 371.168 246.458 371.716 244.832 370.762C243.768 370.143 243.389 369.19 243.257 368.682C243.125 368.173 242.99 367.157 243.617 366.094C244.095 365.284 244.855 364.742 245.701 364.522C246.547 364.302 247.474 364.404 248.288 364.882C249.352 365.5 249.731 366.453 249.863 366.962C249.996 367.47 250.129 368.489 249.503 369.546Z" fill="white"/>
<path d="M360.43 46.4019C362.12 45.962 363.643 44.8759 364.597 43.2501L387.048 4.99169C388.956 1.74017 387.867 -2.44168 384.616 -4.34975C381.364 -6.25783 377.182 -5.16897 375.274 -1.91745L352.823 36.341C350.915 39.5925 352.004 43.7743 355.256 45.6824C356.881 46.6364 358.739 46.8423 360.43 46.4019Z" fill="white"/>
<path d="M245.464 232.781C247.09 233.735 248.949 233.941 250.639 233.501C252.328 233.061 253.851 231.975 254.805 230.349L343.788 78.7109C345.696 75.4594 344.607 71.2775 341.356 69.3695C338.104 67.4614 333.922 68.5502 332.014 71.8018L243.032 223.44C241.122 226.692 242.21 230.872 245.464 232.781Z" fill="white"/>
<path d="M411.133 112.33L402.533 126.979C400.625 130.229 401.714 134.413 404.965 136.321C406.591 137.275 408.451 137.48 410.14 137.04C411.83 136.6 413.353 135.514 414.307 133.889L422.906 119.239C424.815 115.989 423.726 111.806 420.474 109.898C417.223 107.99 413.041 109.079 411.133 112.33Z" fill="white"/>
<path d="M344.459 239.428C346.085 240.382 347.944 240.588 349.634 240.148C351.323 239.708 352.846 238.622 353.8 236.996L392.948 170.286C394.856 167.034 393.767 162.852 390.515 160.944C387.264 159.036 383.082 160.125 381.174 163.377L342.027 230.087C340.119 233.338 341.207 237.519 344.459 239.428Z" fill="white"/>
<path d="M334.34 162.255C331.088 160.347 326.906 161.435 324.998 164.687L286.991 229.45C285.083 232.701 286.172 236.883 289.423 238.791C291.049 239.745 292.908 239.951 294.598 239.511C296.288 239.071 297.811 237.985 298.765 236.359L336.772 171.596C338.682 168.344 337.593 164.162 334.34 162.255Z" fill="white"/>
<path d="M491.056 84.0385C487.804 82.1305 483.622 83.2193 481.714 86.4709L369.427 277.822C367.519 281.074 368.608 285.256 371.859 287.164C373.485 288.118 375.344 288.323 377.034 287.883C378.724 287.443 380.247 286.357 381.201 284.732L493.488 93.38C495.396 90.1285 494.307 85.9466 491.056 84.0385Z" fill="white"/>
</g>
<defs>
<clipPath id="clip0">
<rect width="512" height="512" fill="white" transform="translate(0 45.0117) rotate(-14.5945)"/>
</clipPath>
</defs>
</svg>
