<svg width="582" height="540" viewBox="0 0 582 540" fill="none" xmlns="http://www.w3.org/2000/svg">
<path d="M582 186.128C582 286.808 96.6442 397.937 59.8927 397.937C39.2878 397.937 15.9098 393.188 15.9098 374.192C15.9098 367.845 23.2352 358.672 36.0896 347.613L36.0754 347.62L2.00554 287.085C-2.60767 278.889 1.0498 268.507 9.7798 265.011L15.635 262.667C26.247 258.418 38.1903 259.051 48.2926 264.398L110.143 297.142C134.225 282.859 161.543 267.904 190.336 253.18L69.8038 174.981C60.2683 168.794 60.3701 154.802 69.9949 148.755L79.8547 142.561C96.2648 132.251 116.214 129.206 134.953 134.148L335.467 187.038C397.986 162.223 454.512 145.286 487.969 145.286C496.904 145.286 505.853 145.523 514.489 146.14L453.935 173.476L452.486 193.844L545.958 150.876C568.364 156.219 582 166.192 582 186.128ZM338.066 359.923L412.859 444.888C417.417 450.066 424.84 451.624 431.095 448.717L441.111 444.061C459.378 435.571 470.136 416.319 467.797 396.314L458.433 316.254C457.853 311.301 452.826 308.165 448.122 309.822L341.319 347.445C336.121 349.277 334.423 355.786 338.066 359.923Z" fill="white"/>
</svg>
