<svg width="620" height="620" viewBox="0 0 620 620" fill="none" xmlns="http://www.w3.org/2000/svg">
<g clip-path="url(#clip0)">
<path d="M537.952 229.87C492.848 164.523 411.577 144.999 335.711 179.512C239.669 121.443 119.924 95.5808 12.4283 119.431C4.97131 121.269 1.22494 127.465 3.06234 134.922C31.8841 241.193 110.419 335.214 203.975 393.895C210.533 474.013 263.707 540.008 342.528 549.589C322.137 520.338 310.465 483.665 311.22 443.93C325.486 448.325 339.752 452.72 353.405 454.629C358.989 455.889 363.96 454.664 367.706 448.468L461.366 293.562C463.239 290.464 462.014 285.493 458.303 281.134C450.27 269.93 439.75 259.34 429.844 251.234C464.679 232.105 502.576 225.403 537.952 229.87ZM260.242 279.841C245.257 304.626 215.429 311.976 190.644 296.99C165.859 282.005 158.509 252.177 173.495 227.392C188.48 202.607 218.308 195.258 243.093 210.243C267.878 225.229 275.228 255.056 260.242 279.841Z" fill="white"/>
<path d="M577.869 359.772L512.809 320.435C500.416 312.942 485.502 316.617 478.01 329.009C470.517 341.402 474.192 356.316 486.584 363.809L551.645 403.146C564.037 410.638 578.951 406.964 586.444 394.571C593.937 382.179 590.262 367.265 577.869 359.772Z" fill="white"/>
<path d="M504.815 480.599L439.755 441.262C427.362 433.769 412.448 437.444 404.956 449.836C397.463 462.229 401.138 477.143 413.53 484.635L478.591 523.972C490.983 531.465 505.897 527.79 513.39 515.398C520.883 503.005 517.208 488.091 504.815 480.599Z" fill="white"/>
<path d="M565.191 436.72L475.345 382.397C462.953 374.905 448.039 378.579 440.546 390.972C433.053 403.364 436.728 418.278 449.121 425.771L538.966 480.093C551.359 487.586 566.273 483.911 573.765 471.519C581.258 459.126 577.583 444.213 565.191 436.72Z" fill="white"/>
</g>
<defs>
<clipPath id="clip0">
<rect width="512" height="512" fill="white" transform="translate(0 122.494) rotate(-13.842)"/>
</clipPath>
</defs>
</svg>
