<svg width="551" height="551" viewBox="0 0 551 551" fill="none" xmlns="http://www.w3.org/2000/svg">
<g clip-path="url(#clip0)">
<path d="M263.16 389.062V468.585C263.16 475.345 268.64 480.825 275.4 480.825C282.16 480.825 287.64 475.345 287.64 468.585V389.062C287.64 382.302 282.16 376.822 275.4 376.822C268.64 376.822 263.16 382.302 263.16 389.062Z" fill="white"/>
<path d="M77.173 358.817L20.943 415.047C16.163 419.827 16.163 427.578 20.943 432.358C23.333 434.748 26.466 435.941 29.6 435.941C32.734 435.941 35.864 434.745 38.257 432.358L94.487 376.128C99.267 371.348 99.267 363.597 94.487 358.817C89.704 354.037 81.956 354.037 77.173 358.817Z" fill="white"/>
<path d="M473.624 358.817C468.844 354.038 461.093 354.038 456.313 358.817C451.533 363.596 451.533 371.347 456.313 376.128L512.546 432.358C514.936 434.748 518.069 435.941 521.202 435.941C524.336 435.941 527.467 434.745 529.859 432.358C534.638 427.578 534.638 419.827 529.859 415.047L473.624 358.817Z" fill="white"/>
<path d="M84.569 314.964C135.708 333.587 203.481 343.844 275.4 343.844C347.32 343.844 415.089 333.587 466.228 314.964C520.766 295.105 550.8 267.325 550.8 236.744C550.8 203.167 515.733 173.782 451.862 153.662C437.513 105.51 363.617 69.974 275.4 69.974C187.184 69.974 113.291 105.51 98.942 153.659C35.067 173.782 0 203.167 0 236.744C0 267.326 30.034 295.105 84.569 314.964ZM275.399 306.393C253.952 306.393 237.149 293.272 237.149 276.524C237.149 259.777 253.951 246.656 275.399 246.656C296.847 246.656 313.649 259.777 313.649 276.524C313.649 293.272 296.848 306.393 275.399 306.393ZM437.146 218.219C452.259 218.219 464.405 225.804 468.085 237.54C473.094 253.522 460.985 271.068 440.523 277.485C435.725 278.988 430.847 279.75 426.028 279.75C410.915 279.75 398.769 272.164 395.089 260.429C390.079 244.447 402.188 226.901 422.651 220.484C427.448 218.981 432.326 218.219 437.146 218.219ZM289.13 109.476C324.593 105.008 359.99 113.925 389.229 134.452C400.441 142.322 389.752 160.906 378.418 152.947C351.832 134.278 321.34 126.836 289.133 130.893C275.449 132.619 275.614 111.177 289.13 109.476ZM142.479 178.161C148.039 176.147 154.181 179.033 156.188 184.599C159.275 193.149 202.936 209.095 275.399 209.095C347.863 209.095 391.523 193.146 394.611 184.596C396.619 179.036 402.759 176.15 408.32 178.158C413.882 180.165 416.765 186.304 414.758 191.866C403.744 222.371 321.979 230.511 275.399 230.511C228.82 230.511 147.054 222.371 136.041 191.869C134.034 186.306 136.917 180.168 142.479 178.161ZM82.715 237.54C86.393 225.802 98.538 218.219 113.654 218.219C118.477 218.219 123.351 218.981 128.149 220.483C148.614 226.903 160.723 244.449 155.711 260.428C152.033 272.166 139.888 279.749 124.772 279.749C119.949 279.749 115.075 278.987 110.277 277.484C89.811 271.065 77.706 253.519 82.715 237.54Z" fill="white"/>
</g>
<defs>
<clipPath id="clip0">
<rect width="550.8" height="550.8" fill="white"/>
</clipPath>
</defs>
</svg>
