<svg width="171" height="44" viewBox="0 0 171 44" fill="none" xmlns="http://www.w3.org/2000/svg">
<path d="M1 7L90 41" stroke="white" stroke-width="5"/>
<path d="M169 3L90 41" stroke="white" stroke-width="5"/>
<path d="M90 40.5V41.5" stroke="white" stroke-width="5"/>
<path d="M86.8672 41.6934C87.0155 41.769 87.1651 41.8339 87.3168 41.9022C87.3711 41.9266 87.4315 41.9521 87.4775 41.9897C87.513 42.0188 87.5394 42.0561 87.5729 42.0874C87.689 42.1957 87.8406 42.2878 87.994 42.3316C88.0866 42.3581 88.1683 42.4253 88.2576 42.4577C88.3102 42.4769 88.3775 42.5062 88.4257 42.5365C88.4545 42.5547 88.4922 42.5701 88.5259 42.5759C88.5534 42.5807 88.5727 42.5996 88.6008 42.5996C88.6251 42.5996 88.6455 42.6217 88.6717 42.6232C88.6853 42.624 88.7026 42.6334 88.7151 42.639C88.7255 42.6436 88.7493 42.6427 88.7566 42.6486C88.7867 42.6726 88.8622 42.7152 88.9081 42.7178C88.9267 42.7188 88.9716 42.7481 88.9852 42.7589C89.0035 42.7736 89.0472 42.7753 89.064 42.7904C89.0823 42.807 89.1235 42.8077 89.1366 42.8241C89.148 42.8384 89.2189 42.8596 89.2351 42.8596C89.2648 42.8596 89.2913 42.8832 89.3218 42.8832C89.3512 42.8832 89.3813 42.8911 89.4085 42.8911C89.4362 42.8911 89.4675 42.9069 89.4952 42.9069C89.5293 42.9069 89.5635 42.9069 89.5976 42.9069C89.6707 42.9069 89.7403 42.9148 89.8143 42.9148C89.903 42.9148 89.9852 42.9305 90.0744 42.9305C90.1926 42.9305 90.3108 42.9305 90.429 42.9305C90.4894 42.9305 90.5498 42.9305 90.6102 42.9305C90.6406 42.9305 90.6625 42.9204 90.689 42.9086C90.7161 42.8966 90.741 42.909 90.7678 42.8911" stroke="white" stroke-linecap="round" stroke-linejoin="round"/>
<path d="M89.633 42.5681C89.6062 42.53 89.5924 42.4852 89.5691 42.445C89.5326 42.3822 89.4981 42.3188 89.4798 42.248C89.4538 42.1481 89.4867 42.0894 89.5384 42.0051C89.5766 41.9428 89.6143 41.8806 89.6649 41.8273C89.7042 41.786 89.757 41.7114 89.816 41.6982C89.9155 41.6758 90.041 41.6917 90.1408 41.7056C90.2611 41.7224 90.3611 41.7682 90.4508 41.8514C90.5851 41.9762 90.6885 42.1359 90.7029 42.322C90.7069 42.3733 90.7155 42.4441 90.6924 42.4923C90.6777 42.5231 90.6226 42.5208 90.5935 42.5208C90.5655 42.5208 90.5316 42.5262 90.5042 42.519C90.4307 42.4997 90.3621 42.4596 90.2905 42.4341C90.2356 42.4145 90.1948 42.386 90.1767 42.3316" stroke="white" stroke-linecap="round" stroke-linejoin="round"/>
</svg>
