<svg width="160" height="160" viewBox="0 0 160 160" fill="none" xmlns="http://www.w3.org/2000/svg">
<g clip-path="url(#clip0)">
<path d="M110 30.0018V44.1423L145.859 80.0017L110 115.861V130.002L160 80.0017L110 30.0018Z" fill="white"/>
<path d="M50 130.002V115.861L14.1405 80.0017L50 44.1423V30.0018L0 80.0017L50 130.002Z" fill="white"/>
<path d="M50.6382 156.983L99.8315 0.0253745L109.37 3.0148L60.1763 159.973L50.6382 156.983Z" fill="white"/>
<path d="M65.0002 30.0018C68.7501 22.5018 72.5001 18.7519 80 15.0019C72.5001 11.2519 68.7501 7.50197 65.0002 0.00202942C61.2502 7.50168 57.4994 11.2516 50 15.0016C57.4999 18.7516 61.2502 22.5015 65.0002 30.0018Z" fill="white"/>
<path d="M140 30.0018C142.5 25.0017 145 22.5018 150 20.0017C145 17.5018 142.5 15.0016 140 10.0016C137.5 15.0016 134.999 17.5015 130 20.0017C135 22.5015 137.5 25.0017 140 30.0018V30.0018Z" fill="white"/>
</g>
<defs>
<clipPath id="clip0">
<rect width="160" height="160" fill="white"/>
</clipPath>
</defs>
</svg>
