<svg width="64" height="64" viewBox="0 0 64 64" fill="none" xmlns="http://www.w3.org/2000/svg">
<path d="M59.707 16.7203C56.8455 11.8174 52.964 7.93584 48.0616 5.07463C43.1585 2.21326 37.8057 0.782946 31.9995 0.782946C26.194 0.782946 20.8395 2.2137 15.9374 5.07463C11.0345 7.9357 7.15319 11.8174 4.29168 16.7203C1.43061 21.623 0 26.9768 0 32.7816C0 39.7544 2.03434 46.0245 6.10406 51.5936C10.1733 57.1631 15.4302 61.0169 21.8743 63.1556C22.6244 63.2948 23.1797 63.1969 23.5408 62.8643C23.9019 62.5313 24.0823 62.1142 24.0823 61.6148C24.0823 61.5315 24.0752 60.7818 24.0613 59.3649C24.047 57.948 24.0403 56.712 24.0403 55.6573L23.0819 55.8231C22.4709 55.935 21.7001 55.9824 20.7694 55.969C19.8392 55.956 18.8736 55.8585 17.8738 55.6773C16.8735 55.4976 15.9432 55.081 15.082 54.4282C14.2213 53.7754 13.6103 52.921 13.2491 51.8662L12.8324 50.9074C12.5547 50.269 12.1175 49.5599 11.5202 48.7827C10.9229 48.0047 10.3188 47.4773 9.70779 47.1996L9.41607 46.9907C9.22168 46.852 9.0413 46.6846 8.8745 46.4903C8.70784 46.2961 8.58307 46.1017 8.49974 45.907C8.41626 45.7122 8.48544 45.5524 8.70799 45.427C8.93054 45.3017 9.33274 45.2408 9.91634 45.2408L10.7493 45.3653C11.3049 45.4767 11.9921 45.8092 12.8118 46.3651C13.6311 46.9205 14.3046 47.6426 14.8325 48.5311C15.4717 49.6703 16.2418 50.5383 17.145 51.1356C18.0474 51.7329 18.9573 52.0311 19.8738 52.0311C20.7903 52.0311 21.5819 51.9616 22.2488 51.8234C22.915 51.6845 23.54 51.4756 24.1236 51.1981C24.3736 49.3362 25.0543 47.9059 26.165 46.9061C24.5819 46.7397 23.1585 46.4892 21.8943 46.156C20.6308 45.8224 19.3251 45.281 17.9781 44.5303C16.6304 43.7806 15.5124 42.8497 14.6238 41.7391C13.735 40.6279 13.0057 39.1692 12.4366 37.3641C11.8674 35.5583 11.5826 33.4752 11.5826 31.1142C11.5826 27.7526 12.6801 24.892 14.8745 22.5307C13.8465 20.0034 13.9436 17.1702 15.1659 14.0314C15.9715 13.7812 17.1661 13.969 18.7492 14.5937C20.3326 15.2188 21.492 15.7542 22.2284 16.1981C22.9647 16.6419 23.5548 17.018 23.9993 17.323C26.5831 16.6011 29.2495 16.24 31.9992 16.24C34.7489 16.24 37.4159 16.6011 39.9998 17.323L41.5831 16.3235C42.6658 15.6566 43.9443 15.0454 45.4156 14.4898C46.8879 13.9345 48.0136 13.7816 48.7917 14.0319C50.0412 17.1708 50.1526 20.0039 49.1243 22.5312C51.3186 24.8924 52.4165 27.7538 52.4165 31.1147C52.4165 33.4756 52.1307 35.5653 51.5623 37.385C50.9932 39.2049 50.2575 40.6622 49.355 41.76C48.4515 42.8575 47.3264 43.7812 45.9794 44.5307C44.6321 45.2808 43.326 45.8222 42.0625 46.1558C40.7984 46.4895 39.3751 46.7402 37.792 46.9068C39.2359 48.1563 39.9579 50.1287 39.9579 52.8229V61.6137C39.9579 62.113 40.1316 62.53 40.4792 62.8632C40.8264 63.1957 41.3747 63.2937 42.1248 63.1543C48.5698 61.0159 53.8267 57.1619 57.8958 51.5924C61.9645 46.0233 63.9995 39.7532 63.9995 32.7804C63.9981 26.9764 62.5667 21.623 59.707 16.7203Z" fill="white"/>
</svg>
