<svg width="511" height="511" viewBox="0 0 511 511" fill="none" xmlns="http://www.w3.org/2000/svg">
<g clip-path="url(#clip0)">
<path d="M16.508 106.206C16.873 107.152 17.433 108.04 18.196 108.803L202.176 292.783C205.105 295.712 209.854 295.712 212.782 292.783C215.711 289.854 215.711 285.105 212.782 282.177L64.11 133.505C66.092 134.062 68.081 134.579 70.071 135.022C93.552 140.246 112.989 136.616 124.802 124.803C136.615 112.99 140.244 93.553 135.021 70.072C134.578 68.082 134.061 66.094 133.504 64.112L282.177 212.783C285.106 215.712 289.855 215.712 292.783 212.783C295.712 209.854 295.712 205.105 292.783 202.177L108.803 18.1969C108.04 17.4339 107.152 16.875 106.206 16.509C94.496 5.84096 79.448 -4.936e-05 63.5 -5.07542e-05C46.539 -5.2237e-05 30.592 6.60496 18.599 18.5989C6.605 30.5929 -8.79811e-06 46.538 -1.0281e-05 63.5C-1.16751e-05 79.447 5.842 94.495 16.508 106.206ZM29.205 29.2049C38.366 20.0449 50.545 14.9999 63.5 14.9999C76.455 15 88.634 20.0449 97.795 29.2059C107.771 39.1819 116.636 56.501 120.38 73.33C124.391 91.361 122.138 106.256 114.197 114.197C108.837 119.557 100.31 122.325 89.786 122.325C84.72 122.325 79.189 121.683 73.33 120.38C56.501 116.636 39.182 107.771 29.205 97.795C20.045 88.634 15 76.454 15 63.5C15 50.546 20.045 38.3659 29.205 29.2049Z" fill="white"/>
<path d="M452.8 442.194C451.336 440.73 449.416 439.997 447.497 439.997C445.578 439.997 443.658 440.729 442.194 442.194C439.265 445.123 439.265 449.872 442.194 452.8L498.197 508.803C501.126 511.732 505.875 511.732 508.803 508.803C511.732 505.874 511.732 501.125 508.803 498.197L452.8 442.194Z" fill="white"/>
<path d="M148.803 138.197C147.339 136.733 145.419 136 143.5 136C141.581 136 139.661 136.732 138.197 138.197C135.268 141.126 135.268 145.875 138.197 148.803L418.213 428.819C421.142 431.748 425.891 431.748 428.819 428.819C431.748 425.89 431.748 421.141 428.819 418.213L148.803 138.197Z" fill="white"/>
<path d="M316.788 346.182C315.324 344.718 313.404 343.985 311.485 343.985C309.566 343.985 307.646 344.717 306.182 346.182C303.253 349.111 303.253 353.86 306.182 356.788L322.197 372.803C325.126 375.732 329.875 375.732 332.803 372.803C335.732 369.874 335.732 365.125 332.803 362.197L316.788 346.182Z" fill="white"/>
<path d="M292.815 332.814C295.744 329.885 295.744 325.136 292.815 322.208L116.803 146.197C115.339 144.733 113.419 144 111.5 144C109.581 144 107.661 144.732 106.197 146.197C103.268 149.126 103.268 153.875 106.197 156.803L282.208 332.814C285.137 335.743 289.886 335.743 292.815 332.814Z" fill="white"/>
<path d="M244.803 324.803C247.732 321.874 247.732 317.125 244.803 314.197L236.795 306.189C235.331 304.725 233.411 303.992 231.492 303.992C229.573 303.992 227.653 304.724 226.189 306.189C223.26 309.118 223.26 313.867 226.189 316.795L234.197 324.803C237.125 327.732 241.874 327.732 244.803 324.803Z" fill="white"/>
<path d="M324.803 244.803C327.732 241.874 327.732 237.125 324.803 234.197L316.795 226.189C315.331 224.725 313.411 223.992 311.492 223.992C309.573 223.992 307.653 224.724 306.189 226.189C303.26 229.118 303.26 233.867 306.189 236.795L314.197 244.803C317.125 247.732 321.874 247.732 324.803 244.803Z" fill="white"/>
<path d="M420.795 370.188C419.331 368.723 417.411 367.991 415.492 367.991C413.573 367.991 411.653 368.723 410.189 370.188C407.26 373.117 407.26 377.865 410.189 380.794L426.197 396.803C429.126 399.733 433.875 399.732 436.803 396.803C439.732 393.874 439.732 389.126 436.803 386.197L420.795 370.188Z" fill="white"/>
<path d="M151.5 104C149.581 104 147.661 104.732 146.197 106.197C143.268 109.126 143.268 113.875 146.197 116.803L386.197 356.803C389.126 359.732 393.875 359.732 396.803 356.803C399.732 353.874 399.732 349.125 396.803 346.197L156.803 106.197C155.339 104.732 153.419 104 151.5 104Z" fill="white"/>
<path d="M264.79 462.183C263.326 460.718 261.406 459.986 259.487 459.986C257.568 459.986 255.648 460.718 254.184 462.183C251.255 465.112 251.255 469.861 254.184 472.789L290.197 508.803C293.126 511.733 297.875 511.732 300.803 508.803C303.732 505.874 303.732 501.125 300.803 498.197L264.79 462.183Z" fill="white"/>
<path d="M96.803 294.197C95.339 292.733 93.419 292 91.5 292C89.581 292 87.661 292.732 86.197 294.197C83.268 297.126 83.268 301.875 86.197 304.803L230.197 448.803C233.126 451.732 237.875 451.732 240.803 448.803C243.732 445.874 243.732 441.125 240.803 438.197L96.803 294.197Z" fill="white"/>
<path d="M200.808 438.201C199.344 436.736 197.424 436.004 195.505 436.004C193.586 436.004 191.666 436.736 190.202 438.201C187.273 441.13 187.273 445.879 190.202 448.807L230.197 488.803C233.126 491.732 237.875 491.732 240.803 488.803C243.732 485.874 243.732 481.125 240.803 478.197L200.808 438.201Z" fill="white"/>
<path d="M51.753 289.146C59.232 289.336 66.201 287.406 71.257 282.35C76.825 276.781 79.411 268.051 78.778 257.384L206.209 384.815C209.138 387.744 213.887 387.744 216.815 384.815C219.744 381.886 219.744 377.137 216.815 374.209L68.803 226.197C68.348 225.742 67.845 225.366 67.315 225.052C66.503 224.02 65.666 223.06 64.803 222.197C58.36 215.754 49.137 212.059 39.5 212.059C29.863 212.059 20.64 215.754 14.197 222.197C0.717973 235.676 0.717971 259.324 14.197 272.803L166.19 424.796C169.119 427.725 173.868 427.725 176.796 424.796C179.725 421.867 179.725 417.118 176.796 414.19L51.753 289.146ZM24.803 232.803C28.454 229.152 33.811 227.058 39.5 227.058C45.189 227.058 50.546 229.152 54.197 232.803C58.243 236.849 61.889 245.166 63.269 253.499C64.639 261.768 63.635 268.758 60.65 271.744C58.956 273.438 56.207 274.182 52.917 274.182C44.125 274.182 31.475 268.869 24.803 262.198C17.112 254.505 17.112 240.495 24.803 232.803Z" fill="white"/>
<path d="M266.197 444.803C269.125 447.732 273.874 447.732 276.803 444.803C279.732 441.874 279.732 437.125 276.803 434.197L240.804 398.198C239.34 396.733 237.42 396.001 235.501 396.001C233.582 396.001 231.662 396.733 230.198 398.198C227.269 401.127 227.269 405.876 230.198 408.804L266.197 444.803Z" fill="white"/>
<path d="M467.487 251.986C465.568 251.986 463.648 252.718 462.184 254.183C459.255 257.112 459.255 261.861 462.184 264.789L498.197 300.803C501.126 303.733 505.875 303.732 508.803 300.803C511.732 297.874 511.732 293.125 508.803 290.197L472.79 254.183C471.326 252.718 469.406 251.986 467.487 251.986Z" fill="white"/>
<path d="M448.803 240.803C451.732 237.874 451.732 233.125 448.803 230.197L304.803 86.197C303.339 84.733 301.419 84 299.5 84C297.581 84 295.661 84.732 294.197 86.197C291.268 89.126 291.268 93.875 294.197 96.803L438.197 240.803C441.125 243.732 445.874 243.732 448.803 240.803Z" fill="white"/>
<path d="M438.197 280.803C441.126 283.732 445.875 283.732 448.803 280.803C451.732 277.874 451.732 273.125 448.803 270.197L408.808 230.201C407.344 228.736 405.424 228.004 403.505 228.004C401.586 228.004 399.666 228.736 398.202 230.201C395.273 233.13 395.273 237.879 398.202 240.807L438.197 280.803Z" fill="white"/>
<path d="M374.19 216.796C377.119 219.725 381.868 219.725 384.796 216.796C387.725 213.867 387.725 209.118 384.796 206.19L259.752 81.1472C267.231 81.3372 274.2 79.4072 279.256 74.3512C285.243 68.3642 287.274 59.0442 286.705 49.3132L414.209 176.815C417.138 179.744 421.887 179.744 424.815 176.815C427.744 173.886 427.744 169.137 424.815 166.209L276.803 18.1962C276.342 17.7352 275.831 17.3552 275.293 17.0392C274.486 16.0072 273.655 15.0502 272.803 14.1972C266.36 7.75417 257.137 4.05818 247.5 4.05818C237.863 4.05818 228.64 7.75316 222.197 14.1972C208.718 27.6762 208.718 51.3232 222.197 64.8032L374.19 216.796ZM232.803 24.8042C236.454 21.1532 241.811 19.0592 247.5 19.0592C253.189 19.0592 258.546 21.1532 262.197 24.8042C266.243 28.8502 269.889 37.1672 271.269 45.4992C272.639 53.7682 271.635 60.7582 268.65 63.7442C266.956 65.4382 264.207 66.1822 260.917 66.1822C252.125 66.1822 239.475 60.8692 232.803 54.1982C225.112 46.5052 225.112 32.4951 232.803 24.8042Z" fill="white"/>
<path d="M474.197 236.803C477.125 239.733 481.874 239.732 484.803 236.803C487.732 233.874 487.732 229.125 484.803 226.197L448.804 190.198C447.34 188.733 445.42 188.001 443.501 188.001C441.582 188.001 439.662 188.733 438.198 190.198C435.269 193.127 435.269 197.876 438.198 200.804L474.197 236.803Z" fill="white"/>
</g>
<defs>
<clipPath id="clip0">
<rect width="511" height="511" fill="white" transform="translate(511 511) rotate(-180)"/>
</clipPath>
</defs>
</svg>
